PathFileType	4	(X/Y/Z)	E:\Qualisys_Data\Carbon_Farble_Plate\Data\Amateur_Runner\S1\T1\S1T1V21_c3d.trc
DataRate	CameraRate	NumFrames	NumMarkers	Units	OrigDataRate	OrigDataStartFrame	OrigNumFrames
200.000000	200.000000	4	39	mm	200.000000	141	283
Frame#	Time	LSHO			RSHO			LICST			RICST			LASIS			LHEEL			RASIS			LTROC			RTROC			SACR			LTH1			LSK4			LTH2			LTH3			RHM5			LSK2			LTH4			RTH1			LTOE			RTH2			RTH3			RTH4			LLEP			RLEP			LSK1			LSK3			RSK1			LHM5			RSK2			LFT1			RSK3			RSK4			LLME			RLME			RTOE			RHEEL			RFT1			RFT2			LFT2			
		X1	Y1	Z1	X2	Y2	Z2	X3	Y3	Z3	X4	Y4	Z4	X5	Y5	Z5	X6	Y6	Z6	X7	Y7	Z7	X8	Y8	Z8	X9	Y9	Z9	X10	Y10	Z10	X11	Y11	Z11	X12	Y12	Z12	X13	Y13	Z13	X14	Y14	Z14	X15	Y15	Z15	X16	Y16	Z16	X17	Y17	Z17	X18	Y18	Z18	X19	Y19	Z19	X20	Y20	Z20	X21	Y21	Z21	X22	Y22	Z22	X23	Y23	Z23	X24	Y24	Z24	X25	Y25	Z25	X26	Y26	Z26	X27	Y27	Z27	X28	Y28	Z28	X29	Y29	Z29	X30	Y30	Z30	X31	Y31	Z31	X32	Y32	Z32	X33	Y33	Z33	X34	Y34	Z34	X35	Y35	Z35	X36	Y36	Z36	X37	Y37	Z37	X38	Y38	Z38	X39	Y39	Z39	

142	0.705	132.6001281738281	1517.86767578125	-558.64501953125	36.81600952148438	1495.539428710938	-253.7534332275391	65.69818115234375	1034.920166015625	-560.90576171875	51.45549011230469	1056.456787109375	-264.52197265625	108.0035247802734	995.1129760742188	-533.9089965820312	-488.8924865722656	452.1536865234375	-454.68115234375	91.91629028320312	1011.088195800781	-271.6741027832031	-10.46204471588135	919.392578125	-582.719482421875	-8.463983535766602	913.3637084960938	-242.9861450195312	-59.62549209594727	1061.89306640625	-412.9704284667969	82.64797973632812	748.2576904296875	-543.9829711914062	-349.5911865234375	482.7593688964844	-489.6448974609375	6.746893405914307	756.9694213867188	-576.4177856445312	62.43087768554688	646.3468627929688	-531.1966552734375	398.9907836914062	107.3957138061523	-263.8068542480469	-256.7995300292969	504.5401000976562	-529.5498657226562	-18.01528930664062	660.8651733398438	-555.7677001953125	150.7657623291016	815.5443115234375	-255.229736328125	-454.6500854492188	198.8681182861328	-438.903564453125	77.96752166748047	788.4513549804688	-229.8203430175781	184.9944305419922	719.5541381835938	-258.59033203125	107.6552734375	693.3082885742188	-243.7640380859375	-39.11891937255859	507.4208679199219	-524.6322631835938	200.9962310791016	554.0132446289062	-286.0244445800781	-237.4253387451172	422.3601379394531	-518.0745239257812	-337.2183532714844	405.9769592285156	-510.1836242675781	236.4869995117188	366.9593811035156	-264.8835754394531	-490.4884643554688	253.5721893310547	-499.1092224121094	156.8039245605469	351.6758728027344	-273.2794799804688	-506.5026550292969	440.5293884277344	-421.2729797363281	257.6846313476562	269.5696716308594	-277.9278564453125	180.3568420410156	255.2906951904297	-296.1599731445312	-458.7723999023438	402.2463684082031	-501.1031494140625	257.9934387207031	129.2001953125	-277.3297424316406	449.5386352539062	162.1819305419922	-337.06103515625	211.8949279785156	67.47467803955078	-320.452880859375	232.6922912597656	47.87507629394531	-355.7706909179688	229.0684509277344	44.86614608764648	-297.6529846191406	-518.0763549804688	440.0086059570312	-474.0517578125
143	0.71	152.9169616699219	1514.370849609375	-557.9107055664062	57.67373657226562	1491.096313476562	-252.7864074707031	85.52448272705078	1030.919921875	-560.822509765625	70.25062561035156	1052.988037109375	-264.7294921875	128.2342224121094	991.5466918945312	-533.5703735351562	-460.9043579101562	459.1048278808594	-454.7027893066406	112.2390289306641	1007.883239746094	-271.1123962402344	10.7474889755249	914.8585815429688	-582.687255859375	11.13195991516113	910.28857421875	-243.2442016601562	-39.3620491027832	1058.09765625	-413.1144104003906	106.4793472290039	745.0103759765625	-544.2098388671875	-320.9248352050781	485.5384521484375	-489.5534362792969	29.83241081237793	752.3831176757812	-576.6290283203125	87.91461181640625	642.6724853515625	-531.7429809570312	408.0838317871094	98.5287857055664	-265.158203125	-227.9175567626953	504.5655822753906	-529.3029174804688	7.013867855072021	655.811767578125	-555.9868774414062	171.1126098632812	813.7150268554688	-253.0598602294922	-432.3475952148438	204.655029296875	-438.7039489746094	97.51878356933594	785.7329711914062	-230.3286437988281	205.3764953613281	717.47314453125	-258.0953063964844	127.3090133666992	691.1079711914062	-245.2781982421875	-10.74128818511963	502.7388610839844	-525.642822265625	218.9994049072266	549.8013305664062	-286.4501647949219	-211.0644836425781	422.1380004882812	-518.3849487304688	-310.6516418457031	408.1473999023438	-510.1162719726562	250.47998046875	361.3953247070312	-265.2794494628906	-466.7945861816406	260.2105407714844	-498.7451477050781	170.8322296142578	347.7371520996094	-273.9417114257812	-478.979736328125	447.7842102050781	-421.4566345214844	269.9144287109375	263.3459777832031	-278.5747680664062	192.4362945556641	250.3619079589844	-297.0833129882812	-432.02294921875	408.2462768554688	-500.4841613769531	267.8504943847656	124.5744400024414	-278.6453247070312	458.9597778320312	152.1526184082031	-338.8467712402344	219.0923004150391	70.26580810546875	-321.2672729492188	238.5898895263672	49.42995071411133	-356.8865661621094	233.1130981445312	47.69161224365234	-297.4261169433594	-489.7840576171875	447.3443908691406	-474.4616088867188
144	0.715	172.7771301269531	1510.918090820312	-557.4368896484375	78.69964599609375	1486.402587890625	-251.2689514160156	105.3156204223633	1026.8525390625	-560.6780395507812	91.2974090576172	1049.9306640625	-264.0145263671875	148.1129760742188	987.7125244140624	-533.2685546875	-432.6149597167969	465.1506958007812	-454.5299377441406	130.8677673339844	1004.543334960938	-270.0774230957031	31.26816177368164	910.0550537109376	-582.3908081054688	30.34306144714355	907.3209838867188	-243.0744476318359	-19.86316680908203	1053.639404296875	-413.1331176757812	130.1440582275391	741.5940551757812	-544.4494018554688	-292.0074462890625	487.7544860839844	-489.0364074707031	53.13278579711914	747.8871459960938	-576.6459350585938	113.7053909301758	638.9484252929688	-532.528076171875	414.7793579101562	88.34977722167969	-267.0462951660156	-198.7945251464844	504.5351257324219	-528.8316040039062	32.1159782409668	650.8147583007812	-555.708740234375	191.2013092041016	811.3766479492188	-250.8904266357422	-409.2975158691406	209.9044952392578	-438.5152282714844	117.0835113525391	783.08642578125	-230.5052795410156	225.7261047363281	715.8125610351562	-257.8584594726562	147.08984375	688.51708984375	-246.396240234375	17.31343841552734	497.8014526367188	-525.1638793945312	236.5700988769531	545.2658081054688	-287.0764770507812	-183.4091339111328	421.8773498535156	-518.3120727539062	-283.6005859375	410.428466796875	-510.2292175292969	264.0372314453125	355.4979248046875	-266.0877685546875	-441.9451599121094	266.3564147949219	-498.9262390136719	183.93408203125	343.2748107910156	-274.8925476074219	-450.6723022460938	454.4053649902344	-421.2644348144531	281.5518493652344	257.3353271484375	-279.6748046875	203.8052978515625	245.8857727050781	-298.3268432617188	-404.7430114746094	414.1810913085938	-499.8573913574219	277.1530456542969	120.1005096435547	-280.3188171386719	467.9049987792969	138.8348846435547	-341.0754699707031	225.4945678710938	73.08348083496094	-320.7585144042969	241.9246368408203	49.42473983764648	-355.4568786621094	237.9741821289062	49.66221237182617	-297.9862365722656	-461.1505737304688	453.7091674804688	-474.076416015625
145	0.72	192.9366455078125	1507.096801757812	-556.711669921875	99.90766143798828	1481.421020507812	-250.2941589355469	125.3067779541016	1022.456970214844	-560.0064697265625	111.4191970825195	1046.538452148438	-264.9977111816406	167.932861328125	983.7772827148438	-532.9632568359375	-403.8553771972656	470.5594482421875	-454.1725769042969	151.2327423095703	1001.488586425781	-269.8327941894531	51.9603271484375	904.764892578125	-582.1807250976562	49.62614822387695	904.176025390625	-242.8874206542969	0.1082770004868507	1049.025512695312	-413.1406555175781	153.7951049804688	738.2354736328125	-545.0925903320312	-262.291015625	489.7196350097656	-488.8753967285156	76.29965209960938	743.1709594726562	-576.5001220703125	139.38623046875	635.3527221679688	-534.3082885742188	420.1735229492188	76.6576919555664	-268.3350524902344	-168.6494445800781	504.3973083496094	-529.450927734375	57.34342193603516	645.635498046875	-556.14697265625	210.6323699951172	808.6952514648438	-249.2490844726562	-385.0327758789062	215.2032928466797	-438.4702453613281	136.3100433349609	779.9033203125	-230.3555603027344	244.0770568847656	712.6658935546875	-258.3835754394531	167.0772399902344	686.0139770507812	-246.8434295654297	46.59663391113281	492.609130859375	-526.2293090820312	253.843994140625	540.2542114257812	-286.6879272460938	-153.9465637207031	423.0298767089844	-520.1414794921875	-256.0540466308594	412.3826293945312	-510.0415954589844	277.2610168457031	349.4533386230469	-266.8653259277344	-416.1512145996094	272.63037109375	-499.274169921875	197.2415924072266	339.1000061035156	-275.3697814941406	-422.3481140136719	459.5589599609375	-421.5093078613281	293.0809020996094	251.2162475585938	-280.354248046875	214.6856842041016	241.3471832275391	-299.615234375	-376.536376953125	419.3621215820312	-499.7171325683594	285.7471923828125	115.0017929077148	-281.1218566894531	476.3477783203125	124.1212692260742	-341.8001403808594	231.8147735595703	72.20160675048828	-320.5882263183594	245.9775695800781	47.92626571655273	-355.6303100585938	242.4426879882812	47.92549896240234	-297.0858459472656	-431.9186096191406	459.4915161132812	-473.9566955566406
